<svg xmlns="http://www.w3.org/2000/svg" viewBox="0 0 100 100">
  <circle cx="50" cy="55" r="40" fill="#DDA0DD"/>
  <polygon points="50,5 45,35 55,35" fill="#FFD700"/>
  <polygon points="50,8 47,30 53,30" fill="#FFF8DC"/>
  <ellipse cx="25" cy="35" rx="10" ry="15" fill="#DDA0DD"/>
  <ellipse cx="75" cy="35" rx="10" ry="15" fill="#DDA0DD"/>
  <ellipse cx="25" cy="35" rx="5" ry="10" fill="#E6E6FA"/>
  <ellipse cx="75" cy="35" rx="5" ry="10" fill="#E6E6FA"/>
  <circle cx="35" cy="50" r="7" fill="#333"/>
  <circle cx="65" cy="50" r="7" fill="#333"/>
  <circle cx="37" cy="48" r="2.5" fill="#fff"/>
  <circle cx="67" cy="48" r="2.5" fill="#fff"/>
  <ellipse cx="50" cy="65" rx="5" ry="4" fill="#FFB6C1"/>
  <path d="M 44 72 Q 50 78 56 72" stroke="#333" stroke-width="2" fill="none"/>
  <path d="M 70 25 Q 85 15 90 30 Q 80 25 75 35" fill="#FFB6C1"/>
  <path d="M 75 30 Q 88 22 92 35 Q 82 30 78 40" fill="#E6E6FA"/>
  <path d="M 78 35 Q 90 28 93 42 Q 85 35 80 45" fill="#B0E0E6"/>
</svg>
